<svg width="800" height="800" viewBox="0 0 800 800" fill="none" xmlns="http://www.w3.org/2000/svg">
<path d="M391.543 199.316C400.275 199.316 408.394 201.975 415.136 206.508C404.872 193.781 389.172 185.638 371.555 185.638C340.644 185.638 315.587 210.695 315.587 241.607C315.587 272.513 340.644 297.568 371.555 297.568C389.172 297.568 404.872 289.425 415.136 276.697C408.394 281.243 400.273 283.888 391.543 283.888C368.188 283.888 349.247 264.954 349.247 241.592C349.247 218.225 368.173 199.316 391.543 199.316Z" fill="#C7A045"/>
<path d="M776.361 264.853C765.52 264.853 756.725 273.648 756.725 284.489V332.932H612.522H187.483H43.2751V284.489C43.2751 273.648 34.4799 264.853 23.6387 264.853C12.7976 264.853 4.00244 273.648 4.00244 284.489V332.932V674.701V730.478V780.361C4.00244 791.203 12.7976 799.998 23.6387 799.998C34.4799 799.998 43.2751 791.203 43.2751 780.361V750.112H756.727V780.361C756.727 791.203 765.523 799.998 776.364 799.998C787.207 799.998 796.002 791.203 796.002 780.361V730.478V674.701V332.932V284.489C796 273.636 787.205 264.853 776.361 264.853ZM756.725 372.207V635.431H612.522V372.207H756.725ZM573.249 635.431H419.638V372.207H573.249V635.431ZM380.363 372.207V635.431H226.756V372.207H380.363ZM187.483 372.207V635.431H43.2751V372.207H187.483ZM756.725 710.846H43.2726V674.706H187.483H612.522H756.725V710.846Z" fill="#C7A045"/>
<path d="M192.719 161.866C192.719 165.478 195.653 168.411 199.265 168.411H215.616C216.378 168.411 217.081 168.213 217.764 167.982C218.768 174.528 221.287 180.511 225.025 185.611C224.385 185.931 223.759 186.283 223.236 186.807L211.66 198.363C209.11 200.913 209.11 205.068 211.66 207.619C212.945 208.901 214.62 209.529 216.295 209.529C217.975 209.529 219.65 208.889 220.93 207.619L232.506 196.06C233.044 195.522 233.396 194.891 233.696 194.264C238.802 198.009 244.785 200.535 251.321 201.531C251.083 202.21 250.884 202.906 250.884 203.66V220.023C250.884 223.643 253.817 226.569 257.43 226.569C261.042 226.569 263.975 223.64 263.975 220.023V203.66C263.975 202.906 263.784 202.21 263.546 201.531C270.077 200.523 276.062 198.009 281.163 194.264C281.476 194.904 281.834 195.536 282.358 196.06L293.926 207.619C295.211 208.901 296.886 209.529 298.562 209.529C300.237 209.529 301.909 208.889 303.197 207.619C305.747 205.066 305.747 200.911 303.197 198.363L291.614 186.819C291.09 186.295 290.457 185.944 289.817 185.624C293.575 180.523 296.086 174.528 297.097 167.995C297.774 168.225 298.472 168.424 299.226 168.424H315.589C319.209 168.424 322.135 165.49 322.135 161.878C322.135 158.266 319.206 155.333 315.589 155.333H299.226C298.472 155.333 297.762 155.529 297.097 155.767C296.086 149.236 293.575 143.238 289.817 138.142C290.457 137.83 291.078 137.49 291.614 136.955L303.182 125.398C305.732 122.841 305.732 118.693 303.182 116.143C300.632 113.585 296.477 113.585 293.926 116.143L282.358 127.699C281.834 128.223 281.476 128.85 281.163 129.488C276.062 125.75 270.079 123.236 263.546 122.225C263.784 121.541 263.975 120.853 263.975 120.092V103.728C263.975 100.116 261.042 97.1826 257.43 97.1826C253.817 97.1826 250.884 100.116 250.884 103.728V120.092C250.884 120.853 251.083 121.544 251.321 122.225C244.787 123.236 238.804 125.747 233.696 129.488C233.384 128.848 233.032 128.223 232.506 127.699L220.918 116.13C218.368 113.573 214.22 113.573 211.662 116.13C209.112 118.681 209.112 122.829 211.662 125.386L223.238 136.945C223.776 137.481 224.39 137.82 225.027 138.133C221.289 143.238 218.758 149.224 217.767 155.757C217.083 155.519 216.38 155.321 215.619 155.321H199.267C195.653 155.318 192.719 158.254 192.719 161.866Z" fill="#C7A045"/>
<path d="M198.816 13.0909C198.816 20.3272 204.673 26.1817 211.907 26.1817H244.334V71.5271C244.334 78.761 250.191 84.6179 257.425 84.6179C264.666 84.6179 270.516 78.761 270.516 71.5271V26.1817H344.14V165.26C344.14 172.494 349.994 178.349 357.23 178.349C364.472 178.349 370.319 172.494 370.319 165.26V26.1817H456.67V71.5271C456.67 78.761 462.51 84.6179 469.759 84.6179C476.995 84.6179 482.849 78.761 482.849 71.5271V26.1817H502.549C509.785 26.1817 515.64 20.3272 515.64 13.0909C515.64 5.84968 509.785 0 502.549 0H469.759H357.228H257.422H211.907C204.673 0 198.816 5.84968 198.816 13.0909Z" fill="#C7A045"/>
<path d="M510.723 129.937C496.75 129.937 485.397 129.937 485.397 129.937L477.574 105.852C473.252 92.55 466.246 92.55 461.926 105.852C457.606 119.154 454.1 129.937 454.1 129.937H428.789C414.804 129.937 412.631 136.603 423.957 144.824C435.259 153.044 444.437 159.704 444.437 159.704L436.612 183.796C432.292 197.09 437.967 201.221 449.269 192.993C460.583 184.773 469.761 178.113 469.761 178.113L490.253 192.993C501.555 201.221 507.232 197.09 502.91 183.796C498.59 170.494 495.087 159.704 495.087 159.704L515.564 144.824C526.869 136.606 524.697 129.937 510.723 129.937Z" fill="#C7A045"/>
</svg>
