<svg width="800" height="800" viewBox="0 0 800 800" fill="none" xmlns="http://www.w3.org/2000/svg">
<g clip-path="url(#clip0_138_8)">
<path d="M274.212 300.708C252.667 300.708 235.137 318.237 235.137 339.783C235.137 361.328 252.667 378.858 274.212 378.858C295.758 378.858 313.287 361.328 313.287 339.783C313.287 318.237 295.758 300.708 274.212 300.708ZM274.212 358.47C263.909 358.47 255.525 350.086 255.525 339.783C255.525 329.48 263.909 321.095 274.212 321.095C284.519 321.095 292.9 329.48 292.9 339.783C292.9 350.086 284.517 358.47 274.212 358.47Z" fill="#C7A045"/>
<path d="M400 378.856C421.545 378.856 439.075 361.327 439.075 339.781C439.075 318.236 421.545 300.708 400 300.708C378.455 300.708 360.925 318.237 360.925 339.783C360.925 361.328 378.455 378.856 400 378.856ZM400 321.094C410.306 321.094 418.688 329.478 418.688 339.781C418.688 350.084 410.303 358.469 400 358.469C389.697 358.469 381.313 350.084 381.313 339.781C381.313 329.478 389.697 321.094 400 321.094Z" fill="#C7A045"/>
<path d="M525.787 378.856C547.333 378.856 564.862 361.327 564.862 339.781C564.862 318.236 547.333 300.706 525.787 300.706C504.242 300.706 486.712 318.236 486.712 339.781C486.712 361.327 504.242 378.856 525.787 378.856ZM525.787 321.094C536.092 321.094 544.475 329.478 544.475 339.781C544.475 350.084 536.091 358.469 525.787 358.469C515.484 358.469 507.1 350.084 507.1 339.781C507.1 329.478 515.483 321.094 525.787 321.094Z" fill="#C7A045"/>
<path d="M177.867 762.981H622.133C627.762 762.981 632.326 758.416 632.326 752.787V206.911C632.326 201.281 627.762 196.717 622.133 196.717H177.867C172.237 196.717 167.673 201.28 167.673 206.911V752.787C167.673 758.416 172.237 762.981 177.867 762.981ZM188.061 217.103H611.939V392.481H576.361C590.231 379.172 598.892 360.473 598.892 339.781C598.892 299.481 566.098 266.694 525.787 266.694C499.053 266.694 475.637 281.131 462.894 302.611C450.15 281.131 426.736 266.694 400 266.694C373.266 266.694 349.85 281.131 337.106 302.611C324.362 281.131 300.947 266.694 274.212 266.694C233.903 266.694 201.108 299.481 201.108 339.781C201.108 360.473 209.769 379.172 223.639 392.481H188.061V217.103ZM337.106 376.953C340.505 382.68 344.662 387.897 349.439 392.483H324.775C329.551 387.897 333.708 382.678 337.106 376.953ZM274.212 392.483C245.144 392.483 221.495 368.841 221.495 339.783C221.495 310.725 245.144 287.083 274.212 287.083C303.27 287.083 326.912 310.725 326.912 339.783C326.912 368.841 303.272 392.483 274.212 392.483ZM347.3 339.783C347.3 310.725 370.942 287.083 400 287.083C429.058 287.083 452.7 310.725 452.7 339.783C452.7 368.841 429.058 392.483 400 392.483C370.942 392.483 347.3 368.841 347.3 339.783ZM462.894 376.953C466.292 382.68 470.448 387.897 475.226 392.483H450.562C455.337 387.897 459.495 382.678 462.894 376.953ZM473.087 339.783C473.087 310.725 496.73 287.083 525.787 287.083C554.856 287.083 578.505 310.725 578.505 339.783C578.505 368.841 554.856 392.483 525.787 392.483C496.728 392.483 473.087 368.841 473.087 339.783ZM188.061 412.869H611.939V710.144H592.826V585.189C592.826 567.947 586.467 551.378 574.917 538.528C570.881 534.047 567.719 528.883 565.525 523.192C563.348 517.531 562.245 511.583 562.245 505.511V463.802C562.245 458.173 557.68 453.608 552.051 453.608H504.483C498.855 453.608 494.289 458.173 494.289 463.802V505.509C494.289 515.595 491.206 525.353 485.537 533.555C483.308 530.334 481.433 526.884 480.017 523.189C477.841 517.528 476.737 511.58 476.737 505.508V463.8C476.737 458.172 472.172 453.606 466.544 453.606H418.975C413.347 453.606 408.781 458.172 408.781 463.8V505.508C408.781 515.586 405.703 525.336 400.022 533.556C397.783 530.322 395.903 526.869 394.494 523.187C392.317 517.525 391.212 511.577 391.212 505.506V463.798C391.212 458.17 386.647 453.605 381.019 453.605H333.45C327.822 453.605 323.256 458.17 323.256 463.798V505.506C323.256 515.603 320.176 525.359 314.511 533.552C312.291 530.339 310.416 526.889 308.987 523.186C306.811 517.525 305.708 511.577 305.708 505.505V463.797C305.708 458.169 301.142 453.603 295.514 453.603H247.944C242.316 453.603 237.75 458.169 237.75 463.797V505.505C237.75 517.708 233.248 529.436 225.08 538.523C219.372 544.861 214.906 552.148 211.806 560.189C208.73 568.192 207.17 576.602 207.17 585.183V710.137H188.058V412.869H188.061ZM541.859 502.878V505.511C541.859 514.092 543.419 522.502 546.498 530.516C549.594 538.548 554.059 545.834 559.762 552.167C567.937 561.261 572.439 572.989 572.439 585.191V710.145H484.095V585.191C484.095 579.12 485.198 573.17 487.378 567.503C488.966 563.364 491.097 559.472 493.762 555.87C494.701 554.581 495.706 553.344 496.773 552.166C508.319 539.323 514.676 522.756 514.676 505.512V502.88L541.859 502.878ZM514.676 482.491V473.995H541.859V482.491H514.676ZM412.62 550.594C423.3 537.984 429.172 522.064 429.172 505.511V502.878H456.355V505.511C456.355 514.094 457.914 522.503 460.987 530.494C463.803 537.853 467.819 544.6 472.926 550.616C471.17 553.687 469.622 556.88 468.35 560.195C465.273 568.198 463.714 576.608 463.714 585.189V710.144H421.801V585.189C421.798 572.887 418.636 561.064 412.62 550.594ZM429.17 482.491V473.995H456.353V482.491H429.17ZM370.83 502.878V505.511C370.83 514.092 372.389 522.5 375.462 530.495C378.512 538.459 382.975 545.75 388.72 552.153C389.853 553.419 390.878 554.677 391.8 555.942C398.087 564.459 401.411 574.572 401.411 585.191V710.145H313.067V585.191C313.067 579.12 314.17 573.172 316.35 567.503C317.939 563.362 320.07 559.47 322.734 555.87C323.675 554.578 324.68 553.341 325.737 552.173C337.284 539.35 343.645 522.778 343.645 505.511V502.878H370.83ZM343.647 482.491V473.995H370.83V482.491H343.647ZM285.323 502.878V505.511C285.323 514.092 286.883 522.502 289.962 530.516C292.806 537.895 296.82 544.636 301.892 550.616C300.136 553.687 298.587 556.88 297.316 560.195C294.239 568.2 292.68 576.609 292.68 585.189V710.144H227.561V585.189C227.561 579.119 228.664 573.169 230.836 567.517C233.033 561.816 236.194 556.653 240.237 552.164C251.783 539.322 258.141 522.755 258.141 505.511V502.878H285.323ZM258.141 482.491V473.995H285.323V482.491H258.141ZM188.061 730.531H611.939V742.594H188.061V730.531Z" fill="#C7A045"/>
<path d="M659.152 159.697H222.464V112.503C239.555 107.986 252.195 92.3953 252.195 73.9016V10.1938C252.195 4.56563 247.63 0 242.002 0H182.539C176.911 0 172.345 4.56563 172.345 10.1938V73.9031C172.345 92.3953 184.986 107.986 202.077 112.505V159.698H140.848C135.219 159.698 130.655 164.264 130.655 169.892V789.808C130.655 795.436 135.217 800.002 140.848 800.002H659.152C664.78 800.002 669.345 795.436 669.345 789.808V169.891C669.345 164.263 664.78 159.697 659.152 159.697ZM192.733 20.3875H231.808V30.5813H192.733V20.3875ZM192.733 73.9031V50.9672H231.808V73.9031C231.808 84.6766 223.044 93.4406 212.27 93.4406C201.498 93.4406 192.733 84.675 192.733 73.9031ZM648.958 779.612H151.042V180.084H648.959V779.612H648.958Z" fill="#C7A045"/>
</g>
<defs>
<clipPath id="clip0_138_8">
<rect width="800" height="800" fill="white"/>
</clipPath>
</defs>
</svg>
