<svg width="800" height="800" viewBox="0 0 800 800" fill="none" xmlns="http://www.w3.org/2000/svg">
<path d="M167 149.7C180.75 132.8 201 125 220.7 125H579.3C598.95 125 619.2 132.8 633 149.7C661.9 185.1 725 276.4 725 400C725 523.6 661.9 614.85 633 650.3C619.2 667.2 599 675 579.3 675H220.7C201 675 180.75 667.2 167 650.3C138.1 614.85 75 523.6 75 400C75 276.4 138.1 185.15 167 149.7ZM220.7 175C217.896 174.867 215.097 175.364 212.51 176.454C209.923 177.545 207.613 179.2 205.75 181.3C179.95 212.95 125 293.15 125 400C125 506.85 179.95 587 205.75 618.7C208.75 622.35 213.9 625 220.75 625H579.25C586.1 625 591.25 622.35 594.25 618.7C620.05 587.05 675 506.85 675 400C675 293.15 620.05 213 594.25 181.3C592.381 179.194 590.063 177.534 587.467 176.443C584.871 175.353 582.062 174.86 579.25 175H220.7Z" fill="#C7A045"/>
<path d="M300 275C306.63 275 312.989 277.634 317.678 282.322C322.366 287.011 325 293.37 325 300V375C325 381.63 322.366 387.989 317.678 392.678C312.989 397.366 306.63 400 300 400C293.37 400 287.011 397.366 282.322 392.678C277.634 387.989 275 381.63 275 375V300C275 293.37 277.634 287.011 282.322 282.322C287.011 277.634 293.37 275 300 275ZM500 275C506.63 275 512.989 277.634 517.678 282.322C522.366 287.011 525 293.37 525 300V375C525 381.63 522.366 387.989 517.678 392.678C512.989 397.366 506.63 400 500 400C493.37 400 487.011 397.366 482.322 392.678C477.634 387.989 475 381.63 475 375V300C475 293.37 477.634 287.011 482.322 282.322C487.011 277.634 493.37 275 500 275ZM350 500V550H450V500C450 486.739 444.732 474.021 435.355 464.645C425.979 455.268 413.261 450 400 450C386.739 450 374.021 455.268 364.645 464.645C355.268 474.021 350 486.739 350 500Z" fill="#C7A045"/>
</svg>
