<svg width="800" height="800" viewBox="0 0 800 800" fill="none" xmlns="http://www.w3.org/2000/svg">
<path fill-rule="evenodd" clip-rule="evenodd" d="M366.667 200C311.438 200 266.667 244.772 266.667 300V566.667C266.667 585.077 281.591 600 300 600C318.41 600 333.333 585.077 333.333 566.667V466.667H400.15C407.163 466.623 414.2 465.8 421.107 464.65C432.663 462.723 448.583 458.807 464.907 450.647C481.363 442.417 498.83 429.553 512.11 409.633C525.53 389.503 533.333 364.163 533.333 333.332C533.333 302.5 525.53 277.159 512.11 257.031C498.83 237.111 481.36 224.247 464.907 216.019C448.583 207.858 432.663 203.943 421.107 202.016C414.16 200.858 407.057 200.003 400 200H366.667ZM333.333 400V300C333.333 281.591 348.257 266.667 366.667 266.667L400.013 266.673C412.01 267.073 424.393 270.298 435.093 275.648C443.64 279.921 451.17 285.807 456.64 294.011C461.97 302.007 466.667 314.166 466.667 333.332C466.667 352.5 461.97 364.657 456.64 372.653C451.17 380.86 443.637 386.743 435.093 391.017C424.393 396.367 412.01 399.593 400.01 399.993L333.333 400Z" fill="#C7A045"/>
<path fill-rule="evenodd" clip-rule="evenodd" d="M666.667 33.3333C721.897 33.3333 766.667 78.1049 766.667 133.333V666.667C766.667 721.897 721.897 766.667 666.667 766.667H133.333C78.105 766.667 33.3334 721.897 33.3334 666.667V133.333C33.3334 78.1049 78.105 33.3333 133.333 33.3333H666.667ZM666.667 99.9999C685.077 99.9999 700 114.924 700 133.333V666.667C700 685.077 685.077 700 666.667 700H133.333C114.924 700 100 685.077 100 666.667V133.333C100 114.924 114.924 99.9999 133.333 99.9999H666.667Z" fill="#C7A045"/>
</svg>
