<svg width="800" height="800" viewBox="0 0 800 800" fill="none" xmlns="http://www.w3.org/2000/svg">
<g clip-path="url(#clip0_138_50)">
<path d="M771.845 632.271L769.677 633.084C769.084 633.303 733.084 646.232 650.426 656.929C715.484 629.574 761.29 565.2 761.29 490.323C761.29 390.71 680.258 309.677 580.645 309.677C554.877 309.677 530.413 315.187 508.206 324.955C552.09 291.961 580.645 239.639 580.645 180.645C580.645 81.0323 499.613 0 400 0C300.387 0 219.355 81.0323 219.355 180.645C219.355 239.639 247.91 291.961 291.794 324.955C269.587 315.187 245.123 309.677 219.355 309.677C119.742 309.677 38.7097 390.71 38.7097 490.323C38.7097 565.2 84.5161 629.574 149.574 656.916C66.9161 646.219 30.9161 633.29 30.3226 633.071L28.129 632.258H0V658.065H23.6C24.2065 658.271 24.9677 658.516 25.8065 658.8V718.194L33.6258 721.548C36.1161 722.606 76.6323 739.394 180.645 750.813V800H206.452V753.381C257.265 758.026 320.968 761.29 400 761.29C479.032 761.29 542.723 758.026 593.548 753.381V800H619.355V750.8C723.368 739.381 763.884 722.594 766.374 721.523L774.194 718.181V658.787C775.032 658.516 775.794 658.271 776.4 658.052H800V632.245L771.845 632.271ZM580.645 335.484C666.026 335.484 735.484 404.942 735.484 490.323C735.484 575.703 666.026 645.161 580.645 645.161C495.265 645.161 425.806 575.703 425.806 490.323C425.806 404.942 495.265 335.484 580.645 335.484ZM542.671 666.877C501.471 669.381 454.142 670.968 400 670.968C345.858 670.968 298.529 669.381 257.329 666.877C338.748 649.368 400 576.903 400 490.323C400 431.329 371.445 379.006 327.561 346.013C349.768 355.781 374.232 361.29 400 361.29C425.768 361.29 450.232 355.781 472.439 346.013C428.555 379.006 400 431.329 400 490.323C400 576.903 461.239 649.368 542.671 666.877ZM245.161 180.645C245.161 95.2645 314.619 25.8065 400 25.8065C485.381 25.8065 554.839 95.2645 554.839 180.645C554.839 266.026 485.381 335.484 400 335.484C314.619 335.484 245.161 266.026 245.161 180.645ZM64.5161 490.323C64.5161 404.942 133.974 335.484 219.355 335.484C304.735 335.484 374.194 404.942 374.194 490.323C374.194 575.703 304.735 645.161 219.355 645.161C133.974 645.161 64.5161 575.703 64.5161 490.323ZM748.387 700.555C721.303 709.252 621.161 735.484 400 735.484C178.774 735.484 78.6452 709.226 51.6129 700.555V665.935C99.6 677.587 207.755 696.774 400 696.774C592.245 696.774 700.4 677.587 748.387 665.935V700.555Z" fill="#C7A045"/>
<path d="M529.032 180.645C529.032 109.497 471.148 51.6128 400 51.6128C328.852 51.6128 270.968 109.497 270.968 180.645C270.968 251.793 328.852 309.677 400 309.677C471.148 309.677 529.032 251.793 529.032 180.645ZM296.774 180.645C296.774 123.729 343.084 77.4192 400 77.4192C456.916 77.4192 503.226 123.729 503.226 180.645C503.226 237.561 456.916 283.871 400 283.871C343.084 283.871 296.774 237.561 296.774 180.645Z" fill="#C7A045"/>
<path d="M580.645 412.903C537.948 412.903 503.226 447.626 503.226 490.323C503.226 533.019 537.948 567.742 580.645 567.742C623.342 567.742 658.065 533.019 658.065 490.323C658.065 447.626 623.342 412.903 580.645 412.903ZM580.645 541.936C552.181 541.936 529.032 518.787 529.032 490.323C529.032 461.858 552.181 438.71 580.645 438.71C609.11 438.71 632.258 461.858 632.258 490.323C632.258 518.787 609.11 541.936 580.645 541.936Z" fill="#C7A045"/>
<path d="M219.355 567.742C262.052 567.742 296.774 533.019 296.774 490.323C296.774 447.626 262.052 412.903 219.355 412.903C176.658 412.903 141.936 447.626 141.936 490.323C141.936 533.019 176.658 567.742 219.355 567.742ZM219.355 438.71C247.819 438.71 270.968 461.858 270.968 490.323C270.968 518.787 247.819 541.936 219.355 541.936C190.89 541.936 167.742 518.787 167.742 490.323C167.742 461.858 190.89 438.71 219.355 438.71Z" fill="#C7A045"/>
<path d="M477.419 180.645C477.419 169.974 475.226 159.548 470.89 149.664L447.252 160.026C450.155 166.619 451.613 173.561 451.613 180.645C451.613 209.109 428.465 232.258 400 232.258C371.536 232.258 348.387 209.109 348.387 180.645C348.387 152.18 371.536 129.032 400 129.032C410.968 129.032 421.561 132.606 430.658 139.38L446.052 118.684C432.49 108.568 416.542 103.226 400 103.226C357.303 103.226 322.581 137.948 322.581 180.645C322.581 223.342 357.303 258.064 400 258.064C442.697 258.064 477.419 223.342 477.419 180.645Z" fill="#C7A045"/>
<path d="M348.387 490.323C348.387 419.174 290.503 361.291 219.355 361.291C189.987 361.291 161.213 371.471 138.323 389.961L154.555 410.052C173.123 395.032 195.523 387.097 219.355 387.097C276.271 387.097 322.581 433.407 322.581 490.323C322.581 547.239 276.271 593.549 219.355 593.549C162.439 593.549 116.129 547.239 116.129 490.323C116.129 469.807 122.142 449.987 133.536 432.994L112.09 418.632C97.8452 439.897 90.3226 464.684 90.3226 490.323C90.3226 561.471 148.207 619.355 219.355 619.355C290.503 619.355 348.387 561.471 348.387 490.323Z" fill="#C7A045"/>
<path d="M580.645 619.355C601.29 619.355 621.123 614.529 639.6 605.02L627.781 582.091C612.994 589.691 597.135 593.549 580.645 593.549C523.729 593.549 477.419 547.239 477.419 490.323C477.419 433.407 523.729 387.097 580.645 387.097C637.561 387.097 683.871 433.407 683.871 490.323C683.871 515.678 674.465 540.103 657.419 559.123L676.619 576.361C697.948 552.594 709.677 522.039 709.677 490.323C709.677 419.174 651.794 361.291 580.645 361.291C509.497 361.291 451.613 419.174 451.613 490.323C451.613 561.471 509.497 619.355 580.645 619.355Z" fill="#C7A045"/>
</g>
<defs>
<clipPath id="clip0_138_50">
<rect width="800" height="800" fill="white"/>
</clipPath>
</defs>
</svg>
