<svg width="32" height="32" viewBox="0 0 32 32" fill="none" xmlns="http://www.w3.org/2000/svg">
<path d="M14.6562 19.7401C15.9964 18.8479 17.014 17.548 17.5583 16.0327C18.1027 14.5174 18.1449 12.8671 17.6788 11.326C17.2127 9.78483 16.2631 8.43458 14.9702 7.4749C13.6774 6.51522 12.11 5.99707 10.4999 5.99707C8.88984 5.99707 7.32249 6.51522 6.02965 7.4749C4.73682 8.43458 3.78714 9.78483 3.32105 11.326C2.85497 12.8671 2.89722 14.5174 3.44156 16.0327C3.9859 17.548 5.00344 18.8479 6.34369 19.7401C3.9193 20.6337 1.84882 22.2872 0.44119 24.4539C0.36721 24.5638 0.315823 24.6874 0.290017 24.8174C0.26421 24.9474 0.264499 25.0812 0.290866 25.2111C0.317234 25.3409 0.369154 25.4643 0.443608 25.5739C0.518063 25.6835 0.613566 25.7773 0.724568 25.8497C0.83557 25.9221 0.959855 25.9717 1.0902 25.9956C1.22054 26.0196 1.35435 26.0174 1.48383 25.9892C1.61332 25.9609 1.73591 25.9073 1.84446 25.8312C1.95302 25.7552 2.04539 25.6584 2.11619 25.5464C3.02418 24.1498 4.26664 23.0023 5.73074 22.2078C7.19484 21.4134 8.8342 20.9973 10.4999 20.9973C12.1657 20.9973 13.805 21.4134 15.2691 22.2078C16.7332 23.0023 17.9757 24.1498 18.8837 25.5464C19.0304 25.7644 19.2569 25.9159 19.5144 25.9681C19.7719 26.0204 20.0396 25.9692 20.2597 25.8257C20.4797 25.6822 20.6345 25.4578 20.6904 25.2011C20.7464 24.9444 20.6991 24.676 20.5587 24.4539C19.1511 22.2872 17.0806 20.6337 14.6562 19.7401ZM4.99994 13.5001C4.99994 12.4123 5.32251 11.3489 5.92686 10.4445C6.5312 9.54001 7.39019 8.83506 8.39518 8.41878C9.40017 8.00249 10.506 7.89358 11.5729 8.10579C12.6398 8.31801 13.6198 8.84184 14.389 9.61103C15.1582 10.3802 15.682 11.3602 15.8943 12.4271C16.1065 13.494 15.9976 14.5999 15.5813 15.6049C15.165 16.6099 14.46 17.4688 13.5556 18.0732C12.6511 18.6775 11.5877 19.0001 10.4999 19.0001C9.04176 18.9985 7.64377 18.4185 6.61268 17.3874C5.58159 16.3563 5.00159 14.9583 4.99994 13.5001ZM31.2674 25.8376C31.0453 25.9825 30.7748 26.0331 30.5153 25.9785C30.2558 25.9239 30.0286 25.7685 29.8837 25.5464C28.9768 24.149 27.7345 23.0009 26.2701 22.2068C24.8057 21.4127 23.1658 20.9979 21.4999 21.0001C21.2347 21.0001 20.9804 20.8948 20.7928 20.7072C20.6053 20.5197 20.4999 20.2653 20.4999 20.0001C20.4999 19.7349 20.6053 19.4805 20.7928 19.293C20.9804 19.1055 21.2347 19.0001 21.4999 19.0001C22.3099 18.9993 23.1097 18.8197 23.8422 18.474C24.5747 18.1283 25.2218 17.6251 25.7372 17.0003C26.2527 16.3756 26.6238 15.6447 26.824 14.8598C27.0243 14.075 27.0487 13.2557 26.8956 12.4603C26.7424 11.6649 26.4155 10.9132 25.9382 10.2589C25.4609 9.60449 24.8449 9.06362 24.1343 8.6749C23.4237 8.28619 22.6361 8.05921 21.8276 8.0102C21.0191 7.96118 20.2098 8.09134 19.4574 8.39136C19.3348 8.44439 19.2027 8.47229 19.0691 8.47342C18.9355 8.47455 18.803 8.44889 18.6794 8.39794C18.5559 8.34699 18.4438 8.2718 18.3498 8.1768C18.2558 8.0818 18.1818 7.96893 18.1322 7.84485C18.0825 7.72077 18.0583 7.588 18.0608 7.45439C18.0634 7.32077 18.0927 7.18903 18.147 7.06693C18.2013 6.94483 18.2796 6.83486 18.3771 6.74352C18.4747 6.65218 18.5895 6.58131 18.7149 6.53511C20.4368 5.84843 22.3519 5.82372 24.0909 6.46575C25.8298 7.10778 27.2694 8.37106 28.1319 10.0119C28.9944 11.6527 29.2187 13.5548 28.7616 15.3513C28.3044 17.1477 27.1981 18.7112 25.6562 19.7401C28.0806 20.6337 30.1511 22.2872 31.5587 24.4539C31.7035 24.676 31.7542 24.9466 31.6996 25.2061C31.645 25.4655 31.4895 25.6927 31.2674 25.8376Z" fill="#C7A045"/>
</svg>
